<?xml version="1.0" encoding="utf-8"?>
<!-- Generator: Adobe Illustrator 16.0.0, SVG Export Plug-In . SVG Version: 6.00 Build 0)  -->
<!DOCTYPE svg PUBLIC "-//W3C//DTD SVG 1.1//EN" "http://www.w3.org/Graphics/SVG/1.1/DTD/svg11.dtd">
<svg version="1.1" xmlns="http://www.w3.org/2000/svg" xmlns:xlink="http://www.w3.org/1999/xlink" x="0px" y="0px" width="50px"
	 height="50px" viewBox="0 0 50 50" enable-background="new 0 0 50 50" xml:space="preserve">
<g id="Calque_3" display="none">
</g>
<g id="Calque_2" display="none">
</g>
<g id="Calque_4">
	<g>
		<path fill="#1D1D1B" d="M18.012,28.079H14.15l0.215-6.157h3.838l-0.021,0.5h-3.168l-0.08,2.277h2.795l-0.023,0.488H14.91
			l-0.08,2.402h3.262L18.012,28.079z"/>
		<path d="M26.996,17.843l-0.619-1.896h-2.592l-0.824,1.896h-0.619l2.67-6.043l0.627-0.022l2.018,6.065H26.996z M25.52,13.355
			c-0.174-0.516-0.26-0.812-0.26-0.835c-0.01,0.012-0.107,0.309-0.336,0.835l-0.922,2.102h2.213L25.52,13.355z"/>
		<path d="M31.559,28.027l0.02-0.491h1.844l0.174-5.071h-1.844l0.023-0.491h4.314l-0.02,0.491h-1.844l-0.176,5.071h1.844
			l-0.02,0.491H31.559z"/>
		<path d="M27.104,38.217v-4.294c0-0.399,0.01-0.844,0.01-0.844l-1.832,3.54h-0.596l-1.518-3.518c0,0-0.023,0.558-0.033,0.821
			l-0.273,4.294h-0.596l0.391-6.053h0.76l1.615,3.734l1.953-3.734h0.748v6.053H27.104z"/>
		<path fill="#1D1D1B" d="M33.805,18.062c-0.371,0-0.625-0.32-0.625-0.726c0-0.364,0.254-0.684,0.666-0.684
			c0.385,0,0.625,0.319,0.625,0.726C34.471,17.77,34.184,18.062,33.805,18.062z"/>
		<path fill="#1D1D1B" d="M16.154,18.062c-0.369,0-0.623-0.32-0.623-0.726c0-0.364,0.254-0.684,0.666-0.684
			c0.383,0,0.625,0.319,0.625,0.726C16.822,17.77,16.539,18.062,16.154,18.062z"/>
		<path fill="#1D1D1B" d="M33.805,33.348c-0.371,0-0.625-0.321-0.625-0.726c0-0.363,0.254-0.682,0.666-0.682
			c0.385,0,0.625,0.318,0.625,0.725C34.471,33.056,34.184,33.348,33.805,33.348z"/>
		<path fill="#1D1D1B" d="M16.154,33.348c-0.369,0-0.623-0.321-0.623-0.726c0-0.363,0.254-0.682,0.666-0.682
			c0.383,0,0.625,0.318,0.625,0.725C16.822,33.056,16.539,33.348,16.154,33.348z"/>
		<g>
			<path fill="#1D1D1B" d="M25.002,5c0.471,0,0.942,0.114,1.336,0.341l15.055,8.671c0.828,0.476,1.32,1.342,1.32,2.291v17.382
				c0,0.95-0.492,1.817-1.32,2.293l-15.055,8.669C25.941,44.877,25.469,45,25.012,45h-0.023c-0.453,0-0.928-0.123-1.318-0.354
				L8.611,35.978c-0.83-0.476-1.324-1.343-1.324-2.293V16.303c0-0.949,0.494-1.815,1.324-2.291L23.67,5.341
				C24.061,5.114,24.531,5,25.002,5 M25.002,4c-0.665,0-1.3,0.165-1.835,0.477L8.112,13.146C6.97,13.8,6.287,14.981,6.287,16.303
				v17.382c0,1.324,0.683,2.505,1.827,3.161l15.057,8.668C23.7,45.826,24.349,46,24.988,46c0.66,0,1.31-0.174,1.853-0.489
				l15.051-8.667c1.14-0.655,1.821-1.836,1.821-3.16V16.303c0-1.322-0.682-2.503-1.822-3.158l-15.054-8.67
				C26.301,4.165,25.665,4,25.002,4L25.002,4z"/>
		</g>
		<path fill="#1D1D1B" d="M25.035,23.858c0.6,0,1.012,0.521,1.012,1.178c0,0.589-0.412,1.108-1.08,1.108
			c-0.621,0-1.014-0.52-1.014-1.18C23.953,24.331,24.414,23.858,25.035,23.858z"/>
	</g>
</g>
</svg>
