<?xml version="1.0" standalone="no"?>
<!DOCTYPE svg PUBLIC "-//W3C//DTD SVG 20010904//EN"
 "http://www.w3.org/TR/2001/REC-SVG-20010904/DTD/svg10.dtd">
<svg version="1.0" xmlns="http://www.w3.org/2000/svg"
 width="700.000000pt" height="700.000000pt" viewBox="0 0 700.000000 700.000000"
 preserveAspectRatio="xMidYMid meet">
<metadata>
Created by potrace 1.11, written by Peter Selinger 2001-2013
</metadata>
<g transform="translate(0.000000,700.000000) scale(0.100000,-0.100000)"
fill="#000000" stroke="none">
<path d="M3363 6425 c-29 -8 -71 -24 -93 -35 -113 -58 -2153 -1237 -2197
-1271 -66 -49 -125 -127 -161 -210 l-27 -64 -3 -1319 c-3 -1459 -7 -1362 61
-1491 68 -128 48 -115 1238 -799 601 -346 1116 -639 1144 -650 74 -30 277 -29
352 1 29 11 544 304 1144 649 1188 684 1168 671 1236 799 68 129 64 32 61
1491 l-3 1319 -28 66 c-36 86 -107 173 -182 225 -98 67 -2153 1246 -2219 1273
-77 31 -241 39 -323 16z m248 -146 c20 -5 175 -89 345 -186 1838 -1055 1858
-1067 1915 -1125 38 -38 65 -76 80 -115 l24 -58 3 -1245 c2 -849 -1 -1267 -8
-1314 -13 -86 -59 -175 -114 -223 -59 -51 -2196 -1278 -2253 -1294 -61 -17
-166 -15 -221 5 -63 23 -2201 1255 -2243 1293 -49 45 -96 136 -108 213 -14 82
-15 2447 -2 2538 5 34 20 84 32 110 51 104 54 107 1189 758 586 337 1079 619
1097 628 66 33 170 39 264 15z"/>
<path d="M3496 5342 c-11 -18 -366 -826 -366 -834 0 -4 20 -8 44 -8 l43 0 56
128 56 127 183 0 183 0 39 -127 40 -128 48 0 c26 0 48 3 48 8 0 4 -61 195
-137 425 l-137 417 -47 0 c-26 0 -50 -3 -53 -8z m103 -303 c34 -102 61 -188
61 -192 0 -4 -65 -7 -145 -7 -80 0 -145 2 -145 4 0 3 33 80 74 173 40 92 76
178 81 191 4 13 8 22 10 20 2 -2 30 -87 64 -189z"/>
<path d="M2205 4646 c-64 -64 -27 -176 57 -176 68 0 111 66 88 135 -22 66 -98
88 -145 41z"/>
<path d="M4683 4655 c-50 -35 -50 -135 0 -170 70 -49 164 25 143 111 -16 63
-92 95 -143 59z"/>
<path d="M2006 3858 c-6 -74 -26 -654 -26 -740 l0 -48 274 0 274 0 4 35 4 35
-230 0 -229 0 6 107 c4 58 7 132 7 165 l0 58 194 0 194 0 5 33 c2 17 3 35 0
40 -2 4 -91 7 -196 7 l-192 0 6 152 c3 84 6 154 7 156 1 1 101 2 222 2 l220 0
0 35 0 35 -269 0 -269 0 -6 -72z"/>
<path d="M4447 3923 c-4 -3 -7 -21 -7 -40 l0 -33 131 0 132 0 -6 -107 c-4 -60
-10 -217 -13 -350 l-7 -243 -127 0 -128 0 -5 -32 c-3 -18 -2 -36 2 -41 4 -4
142 -6 307 -5 l299 3 3 38 3 37 -131 0 -130 0 6 148 c3 81 9 237 13 347 l6
200 126 3 127 3 6 30 c3 17 3 35 0 40 -6 10 -597 13 -607 2z"/>
<path d="M3423 3640 c-67 -40 -90 -136 -53 -217 50 -110 204 -112 261 -3 38
70 11 181 -53 220 -43 26 -113 26 -155 0z"/>
<path d="M2205 2506 c-64 -64 -27 -176 57 -176 68 0 111 66 88 135 -22 66 -98
88 -145 41z"/>
<path d="M4683 2512 c-51 -39 -50 -132 0 -167 51 -36 127 -4 143 59 22 88 -75
161 -143 108z"/>
<path d="M3166 2448 c-3 -29 -15 -201 -26 -383 -11 -181 -22 -349 -25 -373
l-5 -43 48 3 47 3 18 320 c11 176 22 328 25 338 5 12 39 -56 106 -213 l99
-231 46 3 46 3 120 232 120 232 3 -345 2 -344 50 0 50 0 0 425 0 425 -58 0
-57 0 -134 -256 c-73 -140 -135 -253 -138 -251 -2 3 -53 117 -112 253 l-107
249 -56 3 -56 3 -6 -53z"/>
</g>
</svg>
