<?xml version="1.0" encoding="UTF-8" standalone="no"?>
<!DOCTYPE svg PUBLIC "-//W3C//DTD SVG 1.1//EN"
 "http://www.w3.org/Graphics/SVG/1.1/DTD/svg11.dtd">
<!-- Generated by graphviz version 2.36.0 (20140111.2315)
 -->
<!-- Title: %63609 Pages: 1 -->
<svg width="1432pt" height="2732pt"
 viewBox="0.00 0.00 1432.00 2731.52" xmlns="http://www.w3.org/2000/svg" xmlns:xlink="http://www.w3.org/1999/xlink">
<g id="graph0" class="graph" transform="scale(1 1) rotate(0) translate(4 2727.52)">
<title>%63609</title>
<polygon fill="white" stroke="none" points="-4,4 -4,-2727.52 1428,-2727.52 1428,4 -4,4"/>
<!-- Book -->
<g id="node1" class="node"><title>Book</title>
<polygon fill="black" stroke="white" points="127.912,-2698 110.456,-2716 75.5441,-2716 58.0882,-2698 75.5441,-2680 110.456,-2680 127.912,-2698"/>
<text text-anchor="middle" x="93" y="-2694.3" font-family="Times,serif" font-size="14.00" fill="white">Book</text>
</g>
<!-- Book&#45;&gt;Book -->
<g id="edge2" class="edge"><title>Book&#45;&gt;Book</title>
<path fill="none" stroke="black" d="M107.651,-2716.03C125.288,-2729.66 146,-2723.65 146,-2698 146,-2676.56 131.527,-2668.84 116.475,-2674.85"/>
<polygon fill="black" stroke="black" points="114.543,-2671.92 107.651,-2679.97 118.057,-2677.97 114.543,-2671.92"/>
<text text-anchor="middle" x="191" y="-2694.3" font-family="Times,serif" font-size="14.00">TRANSLATES</text>
</g>
<!-- BookItem_Chapter -->
<g id="node2" class="node"><title>BookItem_Chapter</title>
<polygon fill="black" stroke="white" points="186.091,-2430 139.545,-2448 46.4545,-2448 -0.0909288,-2430 46.4545,-2412 139.545,-2412 186.091,-2430"/>
<text text-anchor="middle" x="93" y="-2426.3" font-family="Times,serif" font-size="14.00" fill="white">BookItem_Chapter</text>
</g>
<!-- Book&#45;&gt;BookItem_Chapter -->
<g id="edge1" class="edge"><title>Book&#45;&gt;BookItem_Chapter</title>
<path fill="none" stroke="black" d="M93,-2679.96C93,-2635.02 93,-2513.03 93,-2458.26"/>
<polygon fill="black" stroke="black" points="96.5001,-2458.25 93,-2448.25 89.5001,-2458.25 96.5001,-2458.25"/>
<text text-anchor="middle" x="107.5" y="-2560.3" font-family="Times,serif" font-size="14.00">HAS</text>
</g>
<!-- BookItem_Chapter&#45;&gt;BookItem_Chapter -->
<g id="edge4" class="edge"><title>BookItem_Chapter&#45;&gt;BookItem_Chapter</title>
<path fill="none" stroke="black" d="M123.684,-2448.03C160.623,-2461.66 204,-2455.65 204,-2430 204,-2406.56 167.758,-2399.52 133.318,-2408.89"/>
<polygon fill="black" stroke="black" points="132.145,-2405.59 123.684,-2411.97 134.275,-2412.26 132.145,-2405.59"/>
<text text-anchor="middle" x="249" y="-2426.3" font-family="Times,serif" font-size="14.00">TRANSLATES</text>
</g>
<!-- BookItem_Subheading -->
<g id="node4" class="node"><title>BookItem_Subheading</title>
<polygon fill="black" stroke="white" points="541.357,-2162 486.678,-2180 377.322,-2180 322.643,-2162 377.322,-2144 486.678,-2144 541.357,-2162"/>
<text text-anchor="middle" x="432" y="-2158.3" font-family="Times,serif" font-size="14.00" fill="white">BookItem_Subheading</text>
</g>
<!-- BookItem_Chapter&#45;&gt;BookItem_Subheading -->
<g id="edge3" class="edge"><title>BookItem_Chapter&#45;&gt;BookItem_Subheading</title>
<path fill="none" stroke="black" d="M114.722,-2411.96C173.3,-2365.99 334.635,-2239.4 401.919,-2186.6"/>
<polygon fill="black" stroke="black" points="404.314,-2189.17 410.021,-2180.25 399.993,-2183.67 404.314,-2189.17"/>
<text text-anchor="middle" x="287.5" y="-2292.3" font-family="Times,serif" font-size="14.00">HAS</text>
</g>
<!-- BookItem_Paragraph -->
<g id="node3" class="node"><title>BookItem_Paragraph</title>
<polygon fill="black" stroke="white" points="534.1,-1894 483.05,-1912 380.95,-1912 329.9,-1894 380.95,-1876 483.05,-1876 534.1,-1894"/>
<text text-anchor="middle" x="432" y="-1890.3" font-family="Times,serif" font-size="14.00" fill="white">BookItem_Paragraph</text>
</g>
<!-- BookItem_Paragraph&#45;&gt;BookItem_Paragraph -->
<g id="edge5" class="edge"><title>BookItem_Paragraph&#45;&gt;BookItem_Paragraph</title>
<path fill="none" stroke="black" d="M465.172,-1912.03C505.105,-1925.66 552,-1919.65 552,-1894 552,-1870.46 512.484,-1863.46 475.11,-1873.01"/>
<polygon fill="black" stroke="black" points="473.759,-1869.76 465.172,-1875.97 475.755,-1876.47 473.759,-1869.76"/>
<text text-anchor="middle" x="597" y="-1890.3" font-family="Times,serif" font-size="14.00">TRANSLATES</text>
</g>
<!-- Vocabulary -->
<g id="node5" class="node"><title>Vocabulary</title>
<polygon fill="black" stroke="white" points="876.31,-1626 845.655,-1644 784.345,-1644 753.69,-1626 784.345,-1608 845.655,-1608 876.31,-1626"/>
<text text-anchor="middle" x="815" y="-1622.3" font-family="Times,serif" font-size="14.00" fill="white">Vocabulary</text>
</g>
<!-- BookItem_Paragraph&#45;&gt;Vocabulary -->
<g id="edge8" class="edge"><title>BookItem_Paragraph&#45;&gt;Vocabulary</title>
<path fill="none" stroke="black" d="M491.776,-1879.01C555.545,-1861.66 656.717,-1826.94 726,-1768 763.404,-1736.18 790.317,-1684.62 804.219,-1653.45"/>
<polygon fill="black" stroke="black" points="807.507,-1654.66 808.272,-1644.1 801.084,-1651.88 807.507,-1654.66"/>
<text text-anchor="middle" x="762.5" y="-1756.3" font-family="Times,serif" font-size="14.00">CITES</text>
</g>
<!-- Contribution_Document -->
<g id="node12" class="node"><title>Contribution_Document</title>
<polygon fill="black" stroke="white" points="844.238,-1090 787.119,-1108 672.881,-1108 615.762,-1090 672.881,-1072 787.119,-1072 844.238,-1090"/>
<text text-anchor="middle" x="730" y="-1086.3" font-family="Times,serif" font-size="14.00" fill="white">Contribution_Document</text>
</g>
<!-- BookItem_Paragraph&#45;&gt;Contribution_Document -->
<g id="edge6" class="edge"><title>BookItem_Paragraph&#45;&gt;Contribution_Document</title>
<path fill="none" stroke="black" d="M432.128,-1875.87C433.005,-1776.09 439.284,-1272.44 477,-1216 516.758,-1156.51 593.499,-1124.21 652.083,-1107.45"/>
<polygon fill="black" stroke="black" points="653.351,-1110.73 662.058,-1104.69 651.487,-1103.98 653.351,-1110.73"/>
<text text-anchor="middle" x="462.5" y="-1488.3" font-family="Times,serif" font-size="14.00">CITES</text>
</g>
<!-- Document -->
<g id="node15" class="node"><title>Document</title>
<polygon fill="black" stroke="white" points="488.931,-1090 460.966,-1108 405.034,-1108 377.069,-1090 405.034,-1072 460.966,-1072 488.931,-1090"/>
<text text-anchor="middle" x="433" y="-1086.3" font-family="Times,serif" font-size="14.00" fill="white">Document</text>
</g>
<!-- BookItem_Paragraph&#45;&gt;Document -->
<g id="edge7" class="edge"><title>BookItem_Paragraph&#45;&gt;Document</title>
<path fill="none" stroke="black" d="M428.852,-1875.98C415.108,-1800.69 360.286,-1489.93 343,-1232 342.524,-1224.9 340.817,-1222.77 343,-1216 355.759,-1176.44 386.201,-1138.84 408.151,-1115.4"/>
<polygon fill="black" stroke="black" points="410.839,-1117.66 415.231,-1108.01 405.785,-1112.81 410.839,-1117.66"/>
<text text-anchor="middle" x="390.5" y="-1488.3" font-family="Times,serif" font-size="14.00">CITES</text>
</g>
<!-- BookItem_Subheading&#45;&gt;BookItem_Paragraph -->
<g id="edge9" class="edge"><title>BookItem_Subheading&#45;&gt;BookItem_Paragraph</title>
<path fill="none" stroke="black" d="M432,-2143.96C432,-2099.02 432,-1977.03 432,-1922.26"/>
<polygon fill="black" stroke="black" points="435.5,-1922.25 432,-1912.25 428.5,-1922.25 435.5,-1922.25"/>
<text text-anchor="middle" x="446.5" y="-2024.3" font-family="Times,serif" font-size="14.00">HAS</text>
</g>
<!-- BookItem_Subheading&#45;&gt;BookItem_Subheading -->
<g id="edge10" class="edge"><title>BookItem_Subheading&#45;&gt;BookItem_Subheading</title>
<path fill="none" stroke="black" d="M467.107,-2180.03C509.37,-2193.66 559,-2187.65 559,-2162 559,-2138.31 516.643,-2131.37 476.868,-2141.19"/>
<polygon fill="black" stroke="black" points="475.77,-2137.87 467.107,-2143.97 477.683,-2144.6 475.77,-2137.87"/>
<text text-anchor="middle" x="604" y="-2158.3" font-family="Times,serif" font-size="14.00">TRANSLATES</text>
</g>
<!-- Mode -->
<g id="node7" class="node"><title>Mode</title>
<polygon fill="black" stroke="white" points="1111.16,-822 1093.08,-840 1056.92,-840 1038.84,-822 1056.92,-804 1093.08,-804 1111.16,-822"/>
<text text-anchor="middle" x="1075" y="-818.3" font-family="Times,serif" font-size="14.00" fill="white">Mode</text>
</g>
<!-- BookItem_Subheading&#45;&gt;Mode -->
<g id="edge11" class="edge"><title>BookItem_Subheading&#45;&gt;Mode</title>
<path fill="none" stroke="black" d="M457.516,-2143.92C544.205,-2084.71 831,-1879 993,-1644 1108.71,-1476.15 1176.41,-1419.04 1158,-1216 1145.32,-1076.16 1101.24,-913.177 1083,-849.964"/>
<polygon fill="black" stroke="black" points="1086.26,-848.641 1080.1,-840.018 1079.54,-850.598 1086.26,-848.641"/>
<text text-anchor="middle" x="1148" y="-1488.3" font-family="Times,serif" font-size="14.00">RELATES_TO</text>
</g>
<!-- Crossing -->
<g id="node9" class="node"><title>Crossing</title>
<polygon fill="black" stroke="white" points="373.298,-822 348.649,-840 299.351,-840 274.702,-822 299.351,-804 348.649,-804 373.298,-822"/>
<text text-anchor="middle" x="324" y="-818.3" font-family="Times,serif" font-size="14.00" fill="white">Crossing</text>
</g>
<!-- BookItem_Subheading&#45;&gt;Crossing -->
<g id="edge12" class="edge"><title>BookItem_Subheading&#45;&gt;Crossing</title>
<path fill="none" stroke="black" d="M422.611,-2143.64C394.005,-2089.78 307.719,-1920.03 272,-1768 244.513,-1651 244.018,-1619.91 236,-1500 219,-1245.76 292.616,-941.079 316.639,-849.983"/>
<polygon fill="black" stroke="black" points="320.057,-850.748 319.251,-840.184 313.294,-848.945 320.057,-850.748"/>
<text text-anchor="middle" x="280" y="-1488.3" font-family="Times,serif" font-size="14.00">RELATES_TO</text>
</g>
<!-- Vocabulary&#45;&gt;Vocabulary -->
<g id="edge16" class="edge"><title>Vocabulary&#45;&gt;Vocabulary</title>
<path fill="none" stroke="black" d="M836.838,-1644.03C863.128,-1657.66 894,-1651.65 894,-1626 894,-1603.36 869.939,-1596.02 846.212,-1603.98"/>
<polygon fill="black" stroke="black" points="844.674,-1600.84 836.838,-1607.97 847.411,-1607.28 844.674,-1600.84"/>
<text text-anchor="middle" x="939" y="-1622.3" font-family="Times,serif" font-size="14.00">TRANSLATES</text>
</g>
<!-- Vocabulary&#45;&gt;Mode -->
<g id="edge14" class="edge"><title>Vocabulary&#45;&gt;Mode</title>
<path fill="none" stroke="black" d="M848.576,-1609.45C887.332,-1589.69 949.967,-1551.8 983,-1500 1048.4,-1397.44 1081.6,-1085 1094,-964 1098.06,-924.345 1089.45,-878.653 1082.53,-850.295"/>
<polygon fill="black" stroke="black" points="1085.85,-849.15 1079.99,-840.323 1079.07,-850.878 1085.85,-849.15"/>
<text text-anchor="middle" x="1106" y="-1220.3" font-family="Times,serif" font-size="14.00">RELATES_TO</text>
</g>
<!-- Vocabulary&#45;&gt;Mode -->
<g id="edge17" class="edge"><title>Vocabulary&#45;&gt;Mode</title>
<path fill="none" stroke="black" d="M825.178,-1607.73C848.256,-1568 905.249,-1466.54 940,-1376 1008.04,-1198.73 1013.19,-1149.65 1053,-964 1061.43,-924.691 1068.01,-878.563 1071.7,-850.055"/>
<polygon fill="black" stroke="black" points="1075.19,-850.404 1072.97,-840.043 1068.24,-849.523 1075.19,-850.404"/>
<text text-anchor="middle" x="1025" y="-1220.3" font-family="Times,serif" font-size="14.00">DEFINES</text>
</g>
<!-- Vocabulary&#45;&gt;Crossing -->
<g id="edge15" class="edge"><title>Vocabulary&#45;&gt;Crossing</title>
<path fill="none" stroke="black" d="M808.287,-1607.97C789.211,-1561.1 730.854,-1427.88 651,-1340 541.622,-1219.63 443.538,-1252.03 368,-1108 323.063,-1022.32 320.898,-903.584 322.535,-850.529"/>
<polygon fill="black" stroke="black" points="326.044,-850.366 322.929,-840.24 319.049,-850.099 326.044,-850.366"/>
<text text-anchor="middle" x="539" y="-1220.3" font-family="Times,serif" font-size="14.00">RELATES_TO</text>
</g>
<!-- Vocabulary&#45;&gt;Crossing -->
<g id="edge18" class="edge"><title>Vocabulary&#45;&gt;Crossing</title>
<path fill="none" stroke="black" d="M791.851,-1607.77C724.724,-1556.83 527.14,-1400 407,-1232 334.542,-1130.68 335.714,-1088.1 325,-964 321.602,-924.64 322.091,-878.871 322.916,-850.415"/>
<polygon fill="black" stroke="black" points="326.415,-850.515 323.242,-840.407 319.418,-850.288 326.415,-850.515"/>
<text text-anchor="middle" x="436" y="-1220.3" font-family="Times,serif" font-size="14.00">DEFINES</text>
</g>
<!-- Paragraph -->
<g id="node11" class="node"><title>Paragraph</title>
<polygon fill="black" stroke="white" points="823.181,-1358 796.09,-1376 741.91,-1376 714.819,-1358 741.91,-1340 796.09,-1340 823.181,-1358"/>
<text text-anchor="middle" x="769" y="-1354.3" font-family="Times,serif" font-size="14.00" fill="white">Paragraph</text>
</g>
<!-- Vocabulary&#45;&gt;Paragraph -->
<g id="edge13" class="edge"><title>Vocabulary&#45;&gt;Paragraph</title>
<path fill="none" stroke="black" d="M805.867,-1607.82C793.922,-1584.28 773.619,-1540.31 766,-1500 758.621,-1460.96 761.802,-1414.76 765.121,-1386.16"/>
<polygon fill="black" stroke="black" points="768.609,-1386.47 766.377,-1376.12 761.663,-1385.61 768.609,-1386.47"/>
<text text-anchor="middle" x="780.5" y="-1488.3" font-family="Times,serif" font-size="14.00">HAS</text>
</g>
<!-- Slide -->
<g id="node6" class="node"><title>Slide</title>
<polygon fill="black" stroke="white" points="770.162,-822 753.581,-840 720.419,-840 703.838,-822 720.419,-804 753.581,-804 770.162,-822"/>
<text text-anchor="middle" x="737" y="-818.3" font-family="Times,serif" font-size="14.00" fill="white">Slide</text>
</g>
<!-- Reference -->
<g id="node10" class="node"><title>Reference</title>
<polygon fill="black" stroke="white" points="921.181,-554 894.09,-572 839.91,-572 812.819,-554 839.91,-536 894.09,-536 921.181,-554"/>
<text text-anchor="middle" x="867" y="-550.3" font-family="Times,serif" font-size="14.00" fill="white">Reference</text>
</g>
<!-- Slide&#45;&gt;Reference -->
<g id="edge19" class="edge"><title>Slide&#45;&gt;Reference</title>
<path fill="none" stroke="black" d="M745.33,-803.956C767.428,-758.74 827.657,-635.503 854.175,-581.242"/>
<polygon fill="black" stroke="black" points="857.325,-582.768 858.571,-572.246 851.036,-579.694 857.325,-582.768"/>
<text text-anchor="middle" x="820.5" y="-684.3" font-family="Times,serif" font-size="14.00">HAS</text>
</g>
<!-- Slide&#45;&gt;Paragraph -->
<g id="edge20" class="edge"><title>Slide&#45;&gt;Paragraph</title>
<path fill="none" stroke="black" d="M735.242,-840.413C733.202,-867.994 732.218,-922.818 751,-964 778.397,-1024.07 828.608,-1010.65 853,-1072 890.035,-1165.15 822.438,-1281.11 787.722,-1331.57"/>
<polygon fill="black" stroke="black" points="784.733,-1329.74 781.854,-1339.93 790.463,-1333.76 784.733,-1329.74"/>
<text text-anchor="middle" x="876.5" y="-1086.3" font-family="Times,serif" font-size="14.00">HAS</text>
</g>
<!-- Media -->
<g id="node13" class="node"><title>Media</title>
<polygon fill="black" stroke="white" points="804.038,-286 784.519,-304 745.481,-304 725.962,-286 745.481,-268 784.519,-268 804.038,-286"/>
<text text-anchor="middle" x="765" y="-282.3" font-family="Times,serif" font-size="14.00" fill="white">Media</text>
</g>
<!-- Slide&#45;&gt;Media -->
<g id="edge21" class="edge"><title>Slide&#45;&gt;Media</title>
<path fill="none" stroke="black" d="M737.9,-803.838C741.956,-726.477 758.559,-409.834 763.565,-314.369"/>
<polygon fill="black" stroke="black" points="767.075,-314.268 764.103,-304.099 760.085,-313.901 767.075,-314.268"/>
<text text-anchor="middle" x="766.5" y="-550.3" font-family="Times,serif" font-size="14.00">HAS</text>
</g>
<!-- Scenario -->
<g id="node8" class="node"><title>Scenario</title>
<polygon fill="black" stroke="white" points="756.175,-2430 732.088,-2448 683.912,-2448 659.825,-2430 683.912,-2412 732.088,-2412 756.175,-2430"/>
<text text-anchor="middle" x="708" y="-2426.3" font-family="Times,serif" font-size="14.00" fill="white">Scenario</text>
</g>
<!-- Scenario&#45;&gt;BookItem_Subheading -->
<g id="edge26" class="edge"><title>Scenario&#45;&gt;BookItem_Subheading</title>
<path fill="none" stroke="black" d="M690.315,-2411.96C642.817,-2366.18 512.34,-2240.43 457.164,-2187.25"/>
<polygon fill="black" stroke="black" points="459.524,-2184.67 449.895,-2180.25 454.666,-2189.71 459.524,-2184.67"/>
<text text-anchor="middle" x="593.5" y="-2292.3" font-family="Times,serif" font-size="14.00">HAS</text>
</g>
<!-- Scenario&#45;&gt;Vocabulary -->
<g id="edge22" class="edge"><title>Scenario&#45;&gt;Vocabulary</title>
<path fill="none" stroke="black" d="M710.284,-2411.88C723.91,-2309.75 794.44,-1781.1 811.352,-1654.34"/>
<polygon fill="black" stroke="black" points="814.838,-1654.68 812.692,-1644.3 807.9,-1653.75 814.838,-1654.68"/>
<text text-anchor="middle" x="776.5" y="-2024.3" font-family="Times,serif" font-size="14.00">HAS</text>
</g>
<!-- Scenario&#45;&gt;Mode -->
<g id="edge28" class="edge"><title>Scenario&#45;&gt;Mode</title>
<path fill="none" stroke="black" d="M751.751,-2426.54C874.974,-2417.02 1216,-2371.81 1216,-2163 1216,-2163 1216,-2163 1216,-1089 1216,-989.893 1138.65,-891.669 1098.53,-847.391"/>
<polygon fill="black" stroke="black" points="1101.08,-844.994 1091.73,-840.011 1095.93,-849.737 1101.08,-844.994"/>
<text text-anchor="middle" x="1260" y="-1622.3" font-family="Times,serif" font-size="14.00">RELATES_TO</text>
</g>
<!-- Scenario&#45;&gt;Crossing -->
<g id="edge25" class="edge"><title>Scenario&#45;&gt;Crossing</title>
<path fill="none" stroke="black" d="M661.273,-2428.62C524.901,-2424.83 137,-2393.75 137,-2163 137,-2163 137,-2163 137,-1089 137,-1026.03 119.598,-1002.59 151,-948 181.084,-895.705 242.88,-859.367 283.881,-839.842"/>
<polygon fill="black" stroke="black" points="285.459,-842.968 293.058,-835.586 282.514,-836.617 285.459,-842.968"/>
<text text-anchor="middle" x="181" y="-1622.3" font-family="Times,serif" font-size="14.00">RELATES_TO</text>
</g>
<!-- Scenario&#45;&gt;Contribution_Document -->
<g id="edge27" class="edge"><title>Scenario&#45;&gt;Contribution_Document</title>
<path fill="none" stroke="black" d="M706.6,-2411.75C700.987,-2343.6 679.059,-2086.47 651,-1876 612.174,-1584.76 505.061,-1489.27 613,-1216 629.846,-1173.35 668.878,-1136.71 697.238,-1114.32"/>
<polygon fill="black" stroke="black" points="699.506,-1116.99 705.293,-1108.12 695.235,-1111.45 699.506,-1116.99"/>
<text text-anchor="middle" x="646.5" y="-1756.3" font-family="Times,serif" font-size="14.00">HAS</text>
</g>
<!-- User -->
<g id="node14" class="node"><title>User</title>
<polygon fill="black" stroke="white" points="708.909,-18 692.955,-36 661.045,-36 645.091,-18 661.045,-1.77636e-14 692.955,-0 708.909,-18"/>
<text text-anchor="middle" x="677" y="-14.3" font-family="Times,serif" font-size="14.00" fill="white">User</text>
</g>
<!-- Scenario&#45;&gt;User -->
<g id="edge24" class="edge"><title>Scenario&#45;&gt;User</title>
<path fill="none" stroke="black" d="M748.884,-2424.42C832.806,-2413.69 1028.75,-2381.69 1173,-2304 1256.16,-2259.21 1332,-2257.45 1332,-2163 1332,-2163 1332,-2163 1332,-285 1332,-150.579 852.463,-51.4463 714.01,-25.6259"/>
<polygon fill="black" stroke="black" points="714.367,-22.1328 703.898,-23.7578 713.096,-29.0163 714.367,-22.1328"/>
<text text-anchor="middle" x="1378" y="-1220.3" font-family="Times,serif" font-size="14.00">CREATED_BY</text>
</g>
<!-- Scenario&#45;&gt;Document -->
<g id="edge23" class="edge"><title>Scenario&#45;&gt;Document</title>
<path fill="none" stroke="black" d="M673.548,-2419.66C592.803,-2395.7 392.203,-2323.55 313,-2180 165.494,-1912.65 367.08,-1802.17 411,-1500 431.692,-1357.64 433.419,-1184.87 433.233,-1118.65"/>
<polygon fill="black" stroke="black" points="436.732,-1118.24 433.185,-1108.25 429.732,-1118.27 436.732,-1118.24"/>
<text text-anchor="middle" x="346.5" y="-1756.3" font-family="Times,serif" font-size="14.00">HAS</text>
</g>
<!-- Reference&#45;&gt;Reference -->
<g id="edge30" class="edge"><title>Reference&#45;&gt;Reference</title>
<path fill="none" stroke="black" d="M886.903,-572.034C910.863,-585.66 939,-579.648 939,-554 939,-531.558 917.458,-524.15 896.021,-531.777"/>
<polygon fill="black" stroke="black" points="894.529,-528.611 886.903,-535.966 897.451,-534.971 894.529,-528.611"/>
<text text-anchor="middle" x="984" y="-550.3" font-family="Times,serif" font-size="14.00">TRANSLATES</text>
</g>
<!-- Reference&#45;&gt;Paragraph -->
<g id="edge31" class="edge"><title>Reference&#45;&gt;Paragraph</title>
<path fill="none" stroke="black" d="M876.856,-572C907.974,-627.749 1000.32,-810.263 970,-964 945.085,-1090.32 922.785,-1119.59 860,-1232 839.509,-1268.69 810.051,-1307.25 790.255,-1331.67"/>
<polygon fill="black" stroke="black" points="787.313,-1329.74 783.686,-1339.69 792.729,-1334.17 787.313,-1329.74"/>
<text text-anchor="middle" x="1011" y="-952.3" font-family="Times,serif" font-size="14.00">DESCRIBES</text>
</g>
<!-- Reference&#45;&gt;Media -->
<g id="edge29" class="edge"><title>Reference&#45;&gt;Media</title>
<path fill="none" stroke="black" d="M860.464,-535.956C843.198,-490.928 796.26,-368.522 775.323,-313.92"/>
<polygon fill="black" stroke="black" points="778.462,-312.33 771.613,-304.246 771.926,-314.837 778.462,-312.33"/>
<text text-anchor="middle" x="858" y="-416.3" font-family="Times,serif" font-size="14.00">DESCRIBES</text>
</g>
<!-- Paragraph&#45;&gt;BookItem_Paragraph -->
<g id="edge32" class="edge"><title>Paragraph&#45;&gt;BookItem_Paragraph</title>
<path fill="none" stroke="black" d="M758.209,-1376.1C709.175,-1453.8 507.205,-1773.83 448.235,-1867.27"/>
<polygon fill="black" stroke="black" points="445.208,-1865.51 442.831,-1875.84 451.128,-1869.25 445.208,-1865.51"/>
<text text-anchor="middle" x="657" y="-1622.3" font-family="Times,serif" font-size="14.00">TRANSLATES</text>
</g>
<!-- Paragraph&#45;&gt;Vocabulary -->
<g id="edge35" class="edge"><title>Paragraph&#45;&gt;Vocabulary</title>
<path fill="none" stroke="black" d="M772.97,-1376.32C778.403,-1400.39 788.247,-1445.35 795,-1484 801.868,-1523.31 808.025,-1569.09 811.638,-1597.56"/>
<polygon fill="black" stroke="black" points="808.177,-1598.09 812.894,-1607.58 815.122,-1597.22 808.177,-1598.09"/>
<text text-anchor="middle" x="817.5" y="-1488.3" font-family="Times,serif" font-size="14.00">CITES</text>
</g>
<!-- Paragraph&#45;&gt;Paragraph -->
<g id="edge36" class="edge"><title>Paragraph&#45;&gt;Paragraph</title>
<path fill="none" stroke="black" d="M788.903,-1376.03C812.863,-1389.66 841,-1383.65 841,-1358 841,-1335.56 819.458,-1328.15 798.021,-1335.78"/>
<polygon fill="black" stroke="black" points="796.529,-1332.61 788.903,-1339.97 799.451,-1338.97 796.529,-1332.61"/>
<text text-anchor="middle" x="886" y="-1354.3" font-family="Times,serif" font-size="14.00">TRANSLATES</text>
</g>
<!-- Paragraph&#45;&gt;Contribution_Document -->
<g id="edge33" class="edge"><title>Paragraph&#45;&gt;Contribution_Document</title>
<path fill="none" stroke="black" d="M766.501,-1339.96C759.913,-1295.02 742.027,-1173.03 733.997,-1118.26"/>
<polygon fill="black" stroke="black" points="737.442,-1117.63 732.529,-1108.25 730.516,-1118.65 737.442,-1117.63"/>
<text text-anchor="middle" x="770.5" y="-1220.3" font-family="Times,serif" font-size="14.00">CITES</text>
</g>
<!-- Paragraph&#45;&gt;Document -->
<g id="edge34" class="edge"><title>Paragraph&#45;&gt;Document</title>
<path fill="none" stroke="black" d="M747.471,-1339.96C689.41,-1293.99 529.504,-1167.4 462.815,-1114.6"/>
<polygon fill="black" stroke="black" points="464.798,-1111.71 454.785,-1108.25 460.453,-1117.2 464.798,-1111.71"/>
<text text-anchor="middle" x="631.5" y="-1220.3" font-family="Times,serif" font-size="14.00">CITES</text>
</g>
<!-- Contribution_Document&#45;&gt;Slide -->
<g id="edge37" class="edge"><title>Contribution_Document&#45;&gt;Slide</title>
<path fill="none" stroke="black" d="M720.814,-1071.83C707.812,-1045.48 686.418,-993.352 694,-948 699.854,-912.986 714.333,-874.647 724.877,-849.785"/>
<polygon fill="black" stroke="black" points="728.214,-850.888 728.978,-840.32 721.791,-848.104 728.214,-850.888"/>
<text text-anchor="middle" x="708.5" y="-952.3" font-family="Times,serif" font-size="14.00">HAS</text>
</g>
<!-- Contribution_Document&#45;&gt;Mode -->
<g id="edge39" class="edge"><title>Contribution_Document&#45;&gt;Mode</title>
<path fill="none" stroke="black" d="M746.463,-1071.92C773.471,-1044.32 829.448,-988.896 882,-948 936.105,-905.896 1004.47,-864.03 1043.62,-841.029"/>
<polygon fill="black" stroke="black" points="1045.58,-843.938 1052.45,-835.871 1042.05,-837.894 1045.58,-843.938"/>
<text text-anchor="middle" x="926" y="-952.3" font-family="Times,serif" font-size="14.00">RELATES_TO</text>
</g>
<!-- Contribution_Document&#45;&gt;Crossing -->
<g id="edge40" class="edge"><title>Contribution_Document&#45;&gt;Crossing</title>
<path fill="none" stroke="black" d="M695.673,-1071.89C650.895,-1049.12 570.644,-1006.73 506,-964 448.891,-926.252 386.735,-875.902 351.847,-846.708"/>
<polygon fill="black" stroke="black" points="353.905,-843.866 343.998,-840.112 349.402,-849.225 353.905,-843.866"/>
<text text-anchor="middle" x="550" y="-952.3" font-family="Times,serif" font-size="14.00">RELATES_TO</text>
</g>
<!-- Contribution_Document&#45;&gt;User -->
<g id="edge38" class="edge"><title>Contribution_Document&#45;&gt;User</title>
<path fill="none" stroke="black" d="M707.382,-1071.63C681.051,-1049.82 639.005,-1009.69 622,-964 619.52,-957.335 621.79,-955.108 622,-948 632.562,-590.873 665.916,-157.533 674.805,-46.1262"/>
<polygon fill="black" stroke="black" points="678.3,-46.3301 675.61,-36.0825 671.322,-45.7709 678.3,-46.3301"/>
<text text-anchor="middle" x="687" y="-550.3" font-family="Times,serif" font-size="14.00">CREATED_BY</text>
</g>
<!-- Media&#45;&gt;Media -->
<g id="edge42" class="edge"><title>Media&#45;&gt;Media</title>
<path fill="none" stroke="black" d="M780.757,-304.034C799.725,-317.66 822,-311.648 822,-286 822,-264.359 806.142,-256.698 789.793,-263.017"/>
<polygon fill="black" stroke="black" points="787.846,-260.093 780.757,-267.966 791.209,-266.232 787.846,-260.093"/>
<text text-anchor="middle" x="867" y="-282.3" font-family="Times,serif" font-size="14.00">TRANSLATES</text>
</g>
<!-- Media&#45;&gt;User -->
<g id="edge41" class="edge"><title>Media&#45;&gt;User</title>
<path fill="none" stroke="black" d="M759.361,-267.956C744.465,-222.928 703.97,-100.522 685.906,-45.9198"/>
<polygon fill="black" stroke="black" points="689.169,-44.6411 682.706,-36.2465 682.524,-46.8397 689.169,-44.6411"/>
<text text-anchor="middle" x="766" y="-148.3" font-family="Times,serif" font-size="14.00">AVATAR_OF</text>
</g>
<!-- User&#45;&gt;BookItem_Paragraph -->
<g id="edge44" class="edge"><title>User&#45;&gt;BookItem_Paragraph</title>
<path fill="none" stroke="black" d="M647.178,-20.4945C538.499,-27.6848 170,-68.06 170,-285 170,-823 170,-823 170,-823 170,-878.21 383.223,-1704.6 424.962,-1865.84"/>
<polygon fill="black" stroke="black" points="421.667,-1867.08 427.562,-1875.89 428.444,-1865.33 421.667,-1867.08"/>
<text text-anchor="middle" x="248.5" y="-952.3" font-family="Times,serif" font-size="14.00">BOOKMARKED</text>
</g>
<!-- User&#45;&gt;Paragraph -->
<g id="edge43" class="edge"><title>User&#45;&gt;Paragraph</title>
<path fill="none" stroke="black" d="M705.963,-21.6331C807.325,-32.5806 1140,-83.8339 1140,-285 1140,-957 1140,-957 1140,-957 1140,-1079.22 1210.44,-1132.83 1139,-1232 1068.54,-1329.8 917.515,-1352.05 831.795,-1356.51"/>
<polygon fill="black" stroke="black" points="831.505,-1353.02 821.674,-1356.97 831.823,-1360.02 831.505,-1353.02"/>
<text text-anchor="middle" x="1190.5" y="-684.3" font-family="Times,serif" font-size="14.00">BOOKMARKED</text>
</g>
<!-- Document&#45;&gt;Slide -->
<g id="edge45" class="edge"><title>Document&#45;&gt;Slide</title>
<path fill="none" stroke="black" d="M457.44,-1071.98C490.221,-1048.8 549.77,-1005.43 597,-964 640.614,-925.739 687.349,-876.892 714.278,-847.884"/>
<polygon fill="black" stroke="black" points="717.113,-849.973 721.33,-840.253 711.972,-845.222 717.113,-849.973"/>
<text text-anchor="middle" x="628.5" y="-952.3" font-family="Times,serif" font-size="14.00">HAS</text>
</g>
<!-- Document&#45;&gt;Mode -->
<g id="edge48" class="edge"><title>Document&#45;&gt;Mode</title>
<path fill="none" stroke="black" d="M466.297,-1075.18C527.177,-1049.92 660.536,-994.594 773,-948 869.93,-907.841 984.384,-860.485 1040.48,-837.278"/>
<polygon fill="black" stroke="black" points="1042.04,-840.422 1049.94,-833.365 1039.36,-833.954 1042.04,-840.422"/>
<text text-anchor="middle" x="817" y="-952.3" font-family="Times,serif" font-size="14.00">RELATES_TO</text>
</g>
<!-- Document&#45;&gt;Crossing -->
<g id="edge49" class="edge"><title>Document&#45;&gt;Crossing</title>
<path fill="none" stroke="black" d="M423.389,-1072C410.237,-1048.3 386.397,-1003.77 370,-964 354.002,-925.202 339.729,-878.654 331.469,-849.951"/>
<polygon fill="black" stroke="black" points="334.807,-848.892 328.706,-840.23 328.074,-850.806 334.807,-848.892"/>
<text text-anchor="middle" x="414" y="-952.3" font-family="Times,serif" font-size="14.00">RELATES_TO</text>
</g>
<!-- Document&#45;&gt;User -->
<g id="edge46" class="edge"><title>Document&#45;&gt;User</title>
<path fill="none" stroke="black" d="M462.189,-1072.51C495.229,-1051.98 547.274,-1013.48 569,-964 645.61,-789.533 520.074,-725.038 544,-536 568.285,-344.123 641.357,-121.521 667.538,-45.7908"/>
<polygon fill="black" stroke="black" points="670.93,-46.6929 670.911,-36.0981 664.319,-44.3922 670.93,-46.6929"/>
<text text-anchor="middle" x="590" y="-550.3" font-family="Times,serif" font-size="14.00">CREATED_BY</text>
</g>
<!-- Document&#45;&gt;Document -->
<g id="edge47" class="edge"><title>Document&#45;&gt;Document</title>
<path fill="none" stroke="black" d="M453.456,-1108.03C478.082,-1121.66 507,-1115.65 507,-1090 507,-1067.56 484.859,-1060.15 462.827,-1067.78"/>
<polygon fill="black" stroke="black" points="461.157,-1064.69 453.456,-1071.97 464.014,-1071.08 461.157,-1064.69"/>
<text text-anchor="middle" x="552" y="-1086.3" font-family="Times,serif" font-size="14.00">TRANSLATES</text>
</g>
</g>
</svg>
